<svg xmlns="http://www.w3.org/2000/svg" width="20" height="23" viewBox="0 0 20 23">
    <g fill="none">
        <path fill="#57B7DD" d="M0 6.723v5.817l6.756 3.207 6.91-7.315L9.136.126c-.146.05-.289.114-.425.193L1.188 4.663C.453 5.088 0 5.873 0 6.723"/>
        <path fill="#F99132" d="M6.756 15.747L14.903 19.613 18.6 17.478 13.666 8.432z"/>
        <path fill="#A98BBC" d="M17.714 4.146L11.088.319c-.6-.346-1.311-.41-1.952-.193l4.53 8.306 4.048-4.286z"/>
        <path fill="#FF6D56" d="M18.6 17.478l.01-.006c.735-.425 1.188-1.21 1.188-2.06v-8.69c0-.849-.453-1.634-1.188-2.059l-.896-.517-4.048 4.286 4.934 9.046z"/>
        <path fill="#8AC539" d="M0 12.54v2.872c0 .85.453 1.635 1.188 2.06l2.549 1.471 3.02-3.196L0 12.54z"/>
        <path fill="#FFBE0A" d="M3.737 18.944l4.974 2.873c.735.424 1.641.424 2.377 0l3.815-2.204-8.147-3.866-3.02 3.197z"/>
    </g>
</svg>
