<svg xmlns="http://www.w3.org/2000/svg" width="114" height="26" viewBox="0 0 114 26">
    <g fill="none">
        <g>
            <path fill="#57B7DD" d="M0 7.745v6.701l7.783 3.694 7.96-8.427L10.524.145c-.168.057-.332.131-.49.222L1.37 5.372C.522 5.862 0 6.766 0 7.745"/>
            <path fill="#F99132" d="M7.783 18.14L17.168 22.594 21.427 20.134 15.743 9.713z"/>
            <path fill="#A98BBC" d="M20.407 4.776L12.773.366c-.69-.398-1.51-.471-2.249-.22l5.22 9.567 4.663-4.937z"/>
            <path fill="#FF6D56" d="M21.427 20.134l.012-.007c.847-.489 1.369-1.393 1.369-2.372V7.745c0-.98-.522-1.883-1.37-2.373l-1.031-.596-4.664 4.937 5.684 10.421z"/>
            <path fill="#8AC539" d="M0 14.446v3.31c0 .978.522 1.882 1.37 2.371l2.935 1.696 3.478-3.683L0 14.446z"/>
            <path fill="#FFBE0A" d="M4.305 21.823l5.73 3.31c.847.489 1.89.489 2.738 0l4.395-2.539-9.385-4.454-3.478 3.683z"/>
        </g>
        <g fill="#3F3F3F">
            <path d="M58.166 9.204c0 1.331-1.072 1.803-1.99 1.803-1.64 0-1.817-.842-1.817-1.204 0-.306.081-.724.467-.982.39-.263.973-.284 1.753-.284h1.585l.002.667zm-3.484-3.29c.033-.269.163-.49.398-.677.318-.253.764-.381 1.326-.381.6 0 1.055.133 1.353.394.275.24.408.583.408 1.046v.55h-1.61c-.957 0-1.958.047-2.75.617-.717.516-1.113 1.337-1.113 2.312 0 1.769 1.367 2.911 3.483 2.911.858 0 1.782-.332 2.286-.834l.043.683h1.325V6.31c0-1.005-.334-1.795-.993-2.348-.623-.525-1.442-.79-2.433-.79-.978 0-1.787.265-2.405.788-.586.495-.902 1.106-.939 1.815l1.621.14zM19.907 9.204c0 1.331-1.072 1.803-1.99 1.803-1.64 0-1.817-.842-1.817-1.204 0-.306.081-.724.466-.982.392-.263.974-.284 1.754-.284h1.585l.002.667zm-3.484-3.29c.032-.269.163-.49.398-.677.318-.253.764-.381 1.326-.381.6 0 1.054.133 1.353.394.275.24.408.583.408 1.046v.55h-1.61c-.957 0-1.958.047-2.75.617-.717.516-1.113 1.337-1.113 2.312 0 1.769 1.367 2.911 3.483 2.911.858 0 1.781-.332 2.286-.834l.043.683h1.325V6.31c0-1.005-.334-1.795-.993-2.348-.623-.525-1.442-.79-2.434-.79-.977 0-1.786.265-2.404.788-.586.495-.902 1.106-.939 1.815l1.621.14zM37.631 7.887c0 1.033-.154 1.835-.546 2.384-.352.49-.865.729-1.57.73h-.001c-.706-.001-1.22-.24-1.571-.73-.392-.549-.591-1.35-.591-2.384 0-1.006.188-1.736.59-2.298.35-.49.864-.728 1.572-.728.708 0 1.221.238 1.571.728.403.562.546 1.292.546 2.298zM37.378 0l-.006 3.87c-.485-.498-1.229-.697-1.85-.7h-.025c-1.19.006-2.14.455-2.824 1.335-.675.864-.989 1.938-.989 3.379 0 1.478.323 2.611.989 3.465.687.88 1.638 1.33 2.827 1.335h.022c.836 0 1.664-.418 2.148-.932l.05.782h1.324V0h-1.666zM72.386 9.356c-.029.528-.194.911-.506 1.171-.376.313-.845.472-1.394.472-.711 0-1.228-.24-1.58-.73-.399-.558-.592-1.324-.592-2.342 0-1.02.193-1.785.591-2.34.353-.492.87-.731 1.581-.731.55 0 1.018.158 1.394.471.317.265.478.63.506 1.15l1.622-.084c-.043-1.036-.374-1.783-1.042-2.352-.68-.58-1.515-.872-2.478-.872-1.2 0-2.158.45-2.85 1.337-.665.855-.988 1.974-.988 3.423 0 1.45.324 2.569.989 3.421.693.887 1.651 1.336 2.849 1.336.965 0 1.799-.293 2.478-.872.665-.565.996-1.318 1.042-2.37l-1.622-.088zM65.34 10.923c-.31.245-.709.238-1.063-.018-.167-.12-.446-.407-.446-.984V5.015h1.618V3.324h-1.62V1.579h-1.675v1.743h-.974v1.691h.975v4.905c0 1.19.513 2.127 1.407 2.572.356.175.745.26 1.13.26.577 0 1.147-.191 1.589-.56l.056-.047-.934-1.269-.062.049zM48.798 9.655L47 3.322 45.453 3.322 43.655 9.655 41.858 3.322 40.266 3.322 42.882 12.537 44.429 12.537 46.226 6.204 48.024 12.537 49.571 12.537 52.187 3.322 50.595 3.322zM5.82 3.93c0 .578-.157.98-.48 1.226-.371.285-.973.43-1.787.43h-1.89v-3.32h1.828C5.82 2.297 5.82 3.442 5.82 3.93m-.06 6.41c-.388.34-.955.512-1.686.512h-2.41V7.27H4.22c.673.013 1.184.182 1.562.518.356.316.522.692.522 1.182 0 .6-.178 1.05-.545 1.37m.799-4.036c.113-.105.218-.22.314-.347.41-.538.617-1.21.617-1.997 0-1.09-.374-1.944-1.113-2.537C5.683.866 4.684.584 3.408.584H0v11.951h4.031c1.193 0 2.153-.32 2.852-.95.72-.65 1.085-1.535 1.085-2.63 0-.802-.28-1.52-.831-2.136-.178-.198-.37-.37-.578-.516M26.761 3.171c-2.17 0-3.464 1.406-3.464 3.76v5.604h1.666V6.918c0-.62.175-2.062 1.8-2.062 1.624 0 1.8 1.442 1.8 2.062v5.619h1.666V6.93c-.003-2.354-1.299-3.76-3.468-3.76M79.098 3.171c-.755 0-1.436.195-2.03.687V.016H75.4v12.52h1.666v-5.58c0-1.379.963-2.1 1.914-2.1 1.173 0 1.708 1.055 1.708 2.036v5.642h1.672v-5.48c0-3.695-2.718-3.883-3.263-3.883M12.918 3.171c-2.17 0-3.465 1.406-3.465 3.76v5.604h1.667V6.918c0-.62.175-2.062 1.8-2.062.128 0 .368.011.613.086l.433-1.646c-.313-.081-.705-.125-1.048-.125" transform="translate(30.41 6.375)"/>
        </g>
    </g>
</svg>
