<svg width="18" height="18" viewBox="0 0 18 18"><path d="M9 12.5a3.5 3.5 0 1 1 0-7 3.5 3.5 0 0 1 0 7m7.775-4.972l-.65-.12a1.496 1.496 0 0 1-.961-2.32l.374-.545c.943-1.368-.713-3.024-2.081-2.08l-.544.373a1.496 1.496 0 0 1-2.321-.96l-.12-.65c-.301-1.634-2.643-1.634-2.944 0l-.12.65a1.496 1.496 0 0 1-2.321.96l-.544-.374c-1.368-.943-3.024.713-2.081 2.081l.374.544a1.496 1.496 0 0 1-.961 2.321l-.65.12c-1.633.301-1.633 2.643 0 2.944l.65.12a1.496 1.496 0 0 1 .96 2.321l-.373.544c-.943 1.368.713 3.024 2.08 2.081l.546-.374a1.495 1.495 0 0 1 2.32.961l.12.65c.3 1.633 2.643 1.633 2.944 0l.12-.65a1.495 1.495 0 0 1 2.32-.96l.545.373c1.368.943 3.024-.713 2.08-2.08l-.373-.545a1.496 1.496 0 0 1 .96-2.32l.65-.12c1.634-.302 1.634-2.644 0-2.945" fill="currentColor" fill-rule="evenodd"/></svg>