<?xml version="1.0" encoding="UTF-8"?>
<svg width="15px" height="14px" viewBox="0 0 15 14" version="1.1" xmlns="http://www.w3.org/2000/svg" xmlns:xlink="http://www.w3.org/1999/xlink">
    <title>symbol/googlemybusiness/color</title>
    <defs>
        <linearGradient x1="0%" y1="49.999%" x2="99.999%" y2="49.999%" id="linearGradient-1">
            <stop stop-color="#4079D8" offset="3%"></stop>
            <stop stop-color="#4989F5" offset="100%"></stop>
        </linearGradient>
    </defs>
    <g id="Elements" stroke="none" stroke-width="1" fill="none" fill-rule="evenodd">
        <g id="Iconography" transform="translate(-660.000000, -1038.000000)" fill-rule="nonzero">
            <g id="table-icons" transform="translate(660.000000, 717.000000)">
                <g id="google-my-business-logo" transform="translate(0.000000, 321.000000)">
                    <g id="Group">
                        <rect id="Rectangle" fill="#4989F5" x="0.753524436" y="3.27849248" width="13.125" height="9.81400376" rx="1.38986021"></rect>
                        <path d="M13.2069079,3.20476128 L1.4106203,3.20476128 C1.04520677,3.20476128 0.760855263,6.0327688 0.760855263,6.39818233 L7.22086466,13.0924962 L13.2069079,13.0924962 C13.5734492,13.0914953 13.8703336,12.7946109 13.8713346,12.4280695 L13.8713346,3.86904699 C13.8702491,3.50256203 13.5733929,3.20576222 13.2069079,3.20476128 Z" id="Path" fill="url(#linearGradient-1)"></path>
                        <polygon id="Path" fill="#3C4BA6" points="3.75042293 4.92200752 7.50042293 4.92200752 7.50042293 0.000203007519 4.31193609 0.000203007519"></polygon>
                        <path d="M11.2504229,4.92200752 L7.50042293,4.92200752 L7.50042293,0.000203007519 L10.6889098,0.000203007519 L11.2504229,4.92200752 Z M13.9073017,0.933191729 L13.9403017,1.03319173 C13.9323017,0.997897612 13.9163017,0.965124502 13.9073017,0.933191729 Z" id="Shape" fill="#7BABF7"></path>
                        <path d="M13.8831767,0.949827068 L13.8785244,0.933050752 C13.7596382,0.388638158 13.2777773,0.000414473684 12.7205357,6.20300752e-05 L10.6889098,6.20300752e-05 L11.25,4.92200752 L15,4.92200752 L13.8831767,0.949827068 Z" id="Path" fill="#3F51B5"></path>
                        <path d="M1.17944643,0.933191729 L1.14644643,1.03319173 C1.15444643,0.997897612 1.17044643,0.965124502 1.17944643,0.933191729 Z" id="Path" fill="#7BABF7"></path>
                        <path d="M1.1175282,0.949827068 L1.12218045,0.933050752 C1.24106673,0.388638158 1.72292763,0.000414473684 2.28016917,6.20300752e-05 L4.31193609,6.20300752e-05 L3.75,4.92200752 L0,4.92200752 L1.1175282,0.949827068 Z" id="Path" fill="#7BABF7"></path>
                    </g>
                    <path d="M3.75676692,4.92073872 C3.75676692,5.95568233 2.91776786,6.79468139 1.88282425,6.79468139 C0.847880639,6.79468139 0.00888157895,5.95568233 0.00888157895,4.92073872 L3.75676692,4.92073872 Z" id="Path" fill="#709BE0"></path>
                    <path d="M7.50465226,4.92073872 C7.50465226,5.95568233 6.6656532,6.79468139 5.63070959,6.79468139 C4.59576598,6.79468139 3.75676692,5.95568233 3.75676692,4.92073872 L7.50465226,4.92073872 Z" id="Path" fill="#3C4BA6"></path>
                    <path d="M11.2525376,4.92073872 C11.2525376,5.95568233 10.4135385,6.79468139 9.37859492,6.79468139 C8.34365132,6.79468139 7.50465226,5.95568233 7.50465226,4.92073872 L11.2525376,4.92073872 Z" id="Path" fill="#709BE0"></path>
                    <path d="M15,4.92073872 C15,5.95568233 14.1610009,6.79468139 13.1260573,6.79468139 C12.0911137,6.79468139 11.2521147,5.95568233 11.2521147,4.92073872 L15,4.92073872 Z" id="Path" fill="#3C4BA6"></path>
                    <path d="M13.1261278,9.9977594 C13.1195019,9.90852068 13.1085056,9.82703571 13.0928571,9.72299436 L11.0486842,9.72299436 C11.0486842,10.0088966 11.0486842,10.3208797 11.0475564,10.6069229 L12.2317669,10.6069229 C12.1809559,10.8761655 12.0249468,11.1140604 11.7982613,11.2679662 C11.7982613,11.2679662 11.7982613,11.263032 11.7974154,11.262891 C11.6524704,11.3580619 11.4891846,11.4217914 11.3180921,11.449968 C11.1465594,11.4813479 10.9706893,11.4805831 10.7994361,11.4477124 C10.625542,11.4117218 10.4609031,11.3403671 10.3157425,11.2380789 C10.1014788,11.0861379 9.93621684,10.8749671 9.84022556,10.6304662 C9.83289474,10.6114342 9.82612782,10.5922613 9.81921992,10.5728064 L9.81921992,10.5706917 L9.82105263,10.569282 C9.72788473,10.2958359 9.72763693,9.99927434 9.82034774,9.72567293 C9.88564938,9.53373972 9.99312151,9.35887472 10.1348684,9.21392481 C10.4673919,8.86995395 10.9642246,8.74057895 11.4222744,8.87868045 C11.5979123,8.93254751 11.7583988,9.02701382 11.8907425,9.15443233 L12.2902726,8.75490226 C12.3607613,8.68370865 12.4339286,8.61477068 12.5017387,8.54118045 C12.299155,8.35221716 12.0613671,8.20496496 11.8019267,8.10781579 C11.3297668,7.93661039 10.813246,7.93208343 10.3381579,8.09498684 C10.3216212,8.10062594 10.3051692,8.1065047 10.2888158,8.11260902 C9.77627137,8.30529365 9.35461961,8.68318055 9.10714286,9.17163158 C9.01975333,9.34451983 8.95611423,9.52841882 8.91795113,9.71834211 C8.69165414,10.8429474 9.37786184,11.9499305 10.4857613,12.2474774 C10.8479323,12.3444699 11.2329417,12.3420733 11.5979323,12.2591786 C11.9295537,12.1843027 12.2361852,12.0249651 12.4880639,11.7966316 C12.7508459,11.5548553 12.9391917,11.2327218 13.0378759,10.8905695 C13.1203842,10.6006263 13.1502738,10.2982451 13.1261278,9.9977594 L13.1261278,9.9977594 Z" id="Path" fill="#FFFFFF"></path>
                </g>
            </g>
        </g>
    </g>
</svg>