<svg xmlns="http://www.w3.org/2000/svg" width="16" height="16" viewBox="0 0 16 16">
    <g fill="#C62669" fill-rule="evenodd">
        <path d="M7.997.005c-2.172 0-2.444.01-3.297.048C3.85.092 3.268.227 2.76.425c-.526.204-.972.478-1.417.922-.444.445-.718.891-.922 1.417-.198.509-.333 1.09-.372 1.941C.01 5.558 0 5.831 0 8.003s.01 2.444.048 3.297c.039.851.174 1.432.372 1.941.204.526.478.972.922 1.417.445.444.89.718 1.417.922.509.198 1.09.333 1.941.372.853.039 1.125.048 3.297.048s2.445-.01 3.298-.048c.851-.039 1.432-.174 1.941-.372.526-.204.972-.478 1.417-.922.444-.445.718-.89.922-1.417.198-.509.333-1.09.372-1.941.039-.853.048-1.125.048-3.297s-.01-2.445-.048-3.298c-.039-.851-.174-1.432-.372-1.941-.204-.526-.478-.972-.922-1.417-.445-.444-.891-.718-1.417-.922-.509-.198-1.09-.333-1.941-.372-.853-.039-1.126-.048-3.298-.048zm0 1.441c2.136 0 2.389.008 3.232.047.78.035 1.203.166 1.485.275.373.145.64.318.92.598.28.28.453.547.598.92.11.282.24.705.275 1.485.039.843.047 1.096.047 3.232 0 2.135-.008 2.388-.047 3.231-.035.78-.166 1.203-.275 1.485-.145.374-.318.64-.598.92-.28.28-.547.453-.92.598-.282.11-.705.24-1.485.275-.843.039-1.096.047-3.232.047-2.135 0-2.388-.008-3.231-.047-.78-.035-1.203-.165-1.485-.275-.374-.145-.64-.318-.92-.598-.28-.28-.453-.546-.598-.92-.11-.282-.24-.705-.275-1.485-.039-.843-.047-1.096-.047-3.231 0-2.136.008-2.389.047-3.232.035-.78.165-1.203.275-1.485.145-.373.318-.64.598-.92.28-.28.546-.453.92-.598.282-.11.705-.24 1.485-.275.843-.039 1.096-.047 3.231-.047z"/>
        <path d="M7.997 10.668c-1.472 0-2.665-1.193-2.665-2.665 0-1.473 1.193-2.666 2.665-2.666 1.473 0 2.666 1.193 2.666 2.666 0 1.472-1.193 2.665-2.666 2.665zm0-6.772c-2.268 0-4.106 1.838-4.106 4.107 0 2.268 1.838 4.106 4.106 4.106 2.269 0 4.107-1.838 4.107-4.106 0-2.269-1.838-4.107-4.107-4.107zM13.226 3.733c0 .53-.43.96-.96.96s-.96-.43-.96-.96.43-.96.96-.96.96.43.96.96"/>
    </g>
</svg>
