<svg xmlns="http://www.w3.org/2000/svg" width="15" height="15" viewBox="0 0 15 15">
    <g fill="#FB9400" fill-rule="evenodd">
        <path d="M2.143 10.711c1.183 0 2.143.96 2.143 2.143 0 1.184-.96 2.142-2.143 2.142C.959 14.996 0 14.038 0 12.854c0-1.183.959-2.143 2.143-2.143"/>
        <path d="M0 8.155c1.825 0 3.54.71 4.83 2 1.291 1.291 2.002 3.01 2.002 4.84h2.81c0-5.315-4.325-9.64-9.642-9.64v2.8"/>
        <path d="M0 2.874c6.679 0 12.114 5.439 12.114 12.122H15C15 6.726 8.272 0 0 0v2.874"/>
    </g>
</svg>
