<svg
  xmlns="http://www.w3.org/2000/svg"
  width="15"
  height="20"
  viewBox="0 0 15 20"
>
  <g fill="currentColor" fill-rule="nonzero">
    <path
      d="M10.208 1.25H8.851A1.877 1.877 0 0 0 7.083 0a1.88 1.88 0 0 0-1.768 1.25H3.958a.625.625 0 0 0-.625.625v2.5c0 .345.28.625.625.625h6.25c.345 0 .625-.28.625-.625v-2.5a.625.625 0 0 0-.625-.625zM12.309 12.46l-1.724 4.62a.625.625 0 0 1-.585.406h-.026a.626.626 0 0 1-.575-.454L7.4 10 5.58 14.577a.622.622 0 1 1-1.08.145l-1.688-2.263H0v6.284A1.24 1.24 0 0 0 1.25 20h12.5A1.24 1.24 0 0 0 15 18.743V12.46h-2.691z"
    />
    <path
      d="M13.75 2.5H12.5v1.893a1.886 1.886 0 0 1-1.875 1.893h-6.25A1.886 1.886 0 0 1 2.5 4.393V2.5H1.25C.561 2.5 0 3.067 0 3.762v7.573h3.125c.196 0 .382.093.5.252l1.207 1.626L6.92 7.945c.1-.25.352-.412.612-.397a.63.63 0 0 1 .57.457L10.08 15l1.21-3.256a.625.625 0 0 1 .585-.41H15V3.763c0-.708-.549-1.262-1.25-1.262z"
    />
  </g>
</svg>
