<svg
  xmlns="http://www.w3.org/2000/svg"
  width="16"
  height="20"
  viewBox="0 0 16 20"
>
  <g fill="currentColor" fill-rule="nonzero">
    <path
      d="M4.383 1.818c0-.596.466-1.032 1.062-1.032h4.363c.596 0 1.062.436 1.062 1.032v1.13h.786v-1.13C11.656.788 10.838 0 9.808 0H5.445c-1.03 0-1.848.789-1.848 1.818v1.13h.786v-1.13zM2.978 20h9.297c.897 0 1.592-.789 1.592-1.769V6.093H1.386v12.138c0 .98.695 1.769 1.592 1.769zm7.155-12.03a.393.393 0 0 1 .786 0v9.288a.393.393 0 0 1-.786 0V7.97zm-2.9 0a.393.393 0 0 1 .787 0v9.288a.393.393 0 0 1-.787 0V7.97zm-2.899 0a.393.393 0 0 1 .786 0v9.288a.393.393 0 0 1-.786 0V7.97zM.983 5.307H14.27a.983.983 0 1 0 0-1.965H.983a.983.983 0 1 0 0 1.965z"
    />
  </g>
</svg>
