<svg width="15px" height="12px" viewBox="0 0 15 12" version="1.1" xmlns="http://www.w3.org/2000/svg" xmlns:xlink="http://www.w3.org/1999/xlink">
    <g id="v2" stroke-width="1" fill="currentColor">
        <g id="TV-Panel---Configuration-in-RRSS---previsualización" transform="translate(-21.000000, -356.000000)">
            <g id="Sidebar">
                <g id="TV-Panel" transform="translate(21.000000, 352.000000)">
                    <path d="M14.4230769,4 L0.576923077,4 C0.258461538,4 0,4.2688 0,4.6 L0,13.6 C0,13.9312 0.258461538,14.2 0.576923077,14.2 L6.92307692,14.2 L6.92307692,14.8 L5.19230769,14.8 C4.87384615,14.8 4.61538462,15.0688 4.61538462,15.4 C4.61538462,15.7312 4.87384615,16 5.19230769,16 L9.80769231,16 C10.1261538,16 10.3846154,15.7312 10.3846154,15.4 C10.3846154,15.0688 10.1261538,14.8 9.80769231,14.8 L8.07692308,14.8 L8.07692308,14.2 L14.4230769,14.2 C14.7415385,14.2 15,13.9312 15,13.6 L15,4.6 C15,4.2688 14.7415385,4 14.4230769,4 Z" id="TV"></path>
                </g>
            </g>
        </g>
    </g>
</svg>