<svg xmlns="http://www.w3.org/2000/svg" width="16" height="14" viewBox="0 0 16 14">
    <path fill="#69ACE0" fill-rule="evenodd" d="M14.115 2.056c.677-.406 1.198-1.05 1.443-1.816-.634.376-1.337.65-2.085.797C12.875.399 12.022 0 11.077 0 9.265 0 7.795 1.47 7.795 3.283c0 .257.029.507.085.748C5.152 3.894 2.733 2.587 1.114.6.83 1.086.669 1.65.669 2.25c0 1.139.58 2.144 1.46 2.732-.537-.017-1.043-.164-1.486-.41v.041c0 1.59 1.131 2.917 2.633 3.219-.276.075-.566.115-.865.115-.212 0-.417-.02-.618-.059.418 1.304 1.63 2.253 3.067 2.28-1.124.88-2.539 1.405-4.077 1.405-.265 0-.526-.016-.783-.046 1.453.931 3.178 1.475 5.032 1.475 6.038 0 9.34-5.002 9.34-9.34 0-.142-.004-.284-.01-.424.641-.463 1.198-1.041 1.638-1.7-.589.261-1.221.438-1.885.517z"/>
</svg>
