<svg xmlns="http://www.w3.org/2000/svg" width="208" height="177"><g fill="#EDF1F6" fill-rule="evenodd"><animate attributeType="CSS" attributeName="opacity" values="1;0.5;1" dur="2s" repeatCount="indefinite" fill="freeze"/><rect class="rect" width="2" height="52" x="111" y="21" fill-rule="nonzero" rx="1" transform="rotate(15 112 47)"/><rect class="rect" width="2" height="67" x="40.159" y="46.489" fill-rule="nonzero" rx="1" transform="rotate(-72 41.159 79.989)"/><rect class="rect" width="2" height="67" x="50.64" y="90.584" fill-rule="nonzero" rx="1" transform="rotate(-123 51.64 124.084)"/><rect class="rect" width="2" height="67" x="87.751" y="103.829" fill-rule="nonzero" rx="1" transform="rotate(-171 88.75 137.329)"/><rect class="rect" width="2" height="102" x="144.5" y="37.5" fill-rule="nonzero" rx="1" transform="rotate(84 145.5 88.5)"/><rect class="rect" width="50" height="50" x="70" y="68.5" rx="25"/><rect class="rect" width="24" height="24" x="111" rx="12"/><rect class="rect" width="24" height="24" y="58" rx="12"/><rect class="rect" width="24" height="24" x="184" y="71" rx="12"/><rect class="rect" width="36" height="36" x="1" y="124" rx="18"/><rect class="rect" width="12" height="12" x="77" y="165" rx="6"/></g></svg>