<svg
  width="95px"
  height="66px"
  viewBox="0 0 95 66"
  version="1.1"
  xmlns="http://www.w3.org/2000/svg"
  xmlns:xlink="http://www.w3.org/1999/xlink"
>
  <g id="v3" stroke="none" stroke-width="1" fill="none" fill-rule="evenodd">
    <g id="no-data" transform="translate(-212.000000, -728.000000)">
      <g id="conceptos-clave" transform="translate(83.000000, 649.000000)">
        <g
          id="ico-sin-datos-mensajes-copy"
          transform="translate(129.000000, 79.000000)"
        >
          <rect
            id="Rectangle"
            stroke="#EDF1F6"
            stroke-width="2"
            x="1"
            y="1"
            width="93"
            height="64"
            rx="4"
          ></rect>
          <path
            d="M41.744,29.936 C39.536,29.936 38,28.112 38,24.944 C38,21.8 39.536,20 41.744,20 C43.952,20 45.488,21.8 45.488,24.944 C45.488,28.112 43.952,29.936 41.744,29.936 Z M41.744,28.328 C42.752,28.328 43.496,27.296 43.496,24.944 C43.496,22.592 42.752,21.608 41.744,21.608 C40.736,21.608 39.992,22.592 39.992,24.944 C39.992,27.296 40.736,28.328 41.744,28.328 Z M43.928,36.272 L42.248,36.272 L50.816,20 L52.496,20 L43.928,36.272 Z M53,36.272 C50.792,36.272 49.256,34.448 49.256,31.28 C49.256,28.136 50.792,26.336 53,26.336 C55.208,26.336 56.744,28.136 56.744,31.28 C56.744,34.448 55.208,36.272 53,36.272 Z M53,34.664 C54.008,34.664 54.752,33.632 54.752,31.28 C54.752,28.928 54.008,27.944 53,27.944 C51.992,27.944 51.248,28.928 51.248,31.28 C51.248,33.632 51.992,34.664 53,34.664 Z"
            id="%"
            fill="#E9EEF5"
          ></path>
          <rect
            id="Rectangle-Copy-5"
            fill="#EDF1F6"
            transform="translate(48.000000, 45.500000) rotate(-270.000000) translate(-48.000000, -45.500000) "
            x="46"
            y="22"
            width="4"
            height="47"
            rx="2"
          ></rect>
        </g>
      </g>
    </g>
  </g>
</svg>
