<svg width="15" height="15" xmlns="http://www.w3.org/2000/svg"><g fill="currentColor" fill-rule="evenodd"><path d="M10.716 7.892l-1.24 1.24c.003.035.01.07.01.105a3.73 3.73 0 0 1-4.601 3.624 3.701 3.701 0 0 1-2.746-2.746 3.73 3.73 0 0 1 3.624-4.6c.065 0 .127.012.19.018L7.188 4.3a.405.405 0 0 0-.205-.68 5.792 5.792 0 0 0-2.81.072A5.71 5.71 0 0 0 .137 7.966a5.774 5.774 0 0 0 6.787 6.921c2.059-.4 3.768-1.97 4.359-3.983a5.704 5.704 0 0 0 .116-2.802.405.405 0 0 0-.682-.209"/><path d="M14.585 3.508l-2.722-.303-.303-2.79a.465.465 0 0 0-.79-.279L9.023 1.883c-.1.1-.149.24-.133.38L9.194 5l-2.72 2.722a1.663 1.663 0 0 0-.712-.163A1.678 1.678 0 1 0 7.32 8.621l2.748-2.747 2.737.304a.462.462 0 0 0 .38-.133l1.678-1.747a.464.464 0 0 0-.278-.79"/></g></svg>