<svg width="12" height="12" xmlns="http://www.w3.org/2000/svg"><path d="M1.333 0C.597 0 0 .646 0 1.444V7.45c0 .798.597 1.445 1.333 1.445h2.401c.214 0 .415.112.54.3l1.185 1.783a.637.637 0 0 0 1.082 0l1.184-1.783a.653.653 0 0 1 .542-.3h2.4c.736 0 1.333-.647 1.333-1.445V1.444C12 .646 11.403 0 10.667 0H1.333zm6.975 4.5c0 .552.413 1 .923 1s.923-.448.923-1c0-.553-.413-1-.923-1s-.923.447-.923 1zm-6.462 0c0 .552.413 1 .923 1s.923-.448.923-1c0-.553-.413-1-.923-1s-.923.447-.923 1zm3.23 0c0 .552.414 1 .924 1s.923-.448.923-1c0-.553-.413-1-.923-1s-.923.447-.923 1z" fill="currentColor" fill-rule="evenodd"/></svg>